<svg xmlns="http://www.w3.org/2000/svg" viewBox="0 0 200 400" width="200" height="400">
  <!-- Delicate Branching System -->
  <path d="M 100 400 Q 95 300 100 240" fill="none" stroke="#7bb274" stroke-width="4" stroke-linecap="round" />
  
  <!-- Primary splits -->
  <path d="M 100 240 Q 70 180 50 130" fill="none" stroke="#7bb274" stroke-width="2.5" />
  <path d="M 100 240 Q 130 180 150 130" fill="none" stroke="#7bb274" stroke-width="2.5" />
  <path d="M 98 210 Q 95 150 90 90" fill="none" stroke="#7bb274" stroke-width="2" />

  <!-- Sub splits -->
  <!-- Left Side branches -->
  <path d="M 75 185 Q 50 160 30 140" fill="none" stroke="#8dc785" stroke-width="1.5" />
  <path d="M 58 150 Q 40 120 25 100" fill="none" stroke="#8dc785" stroke-width="1.2" />
  <path d="M 50 130 Q 65 100 70 80" fill="none" stroke="#8dc785" stroke-width="1.2" />

  <!-- Right Side branches -->
  <path d="M 125 185 Q 150 160 170 140" fill="none" stroke="#8dc785" stroke-width="1.5" />
  <path d="M 142 150 Q 160 120 175 100" fill="none" stroke="#8dc785" stroke-width="1.2" />
  <path d="M 150 130 Q 135 100 130 80" fill="none" stroke="#8dc785" stroke-width="1.2" />

  <!-- Center branches -->
  <path d="M 95 160 Q 110 130 115 100" fill="none" stroke="#8dc785" stroke-width="1.2" />
  
  <!-- Tiny White Flower Heads (clutter of little dots) -->
  <g fill="#ffffff" stroke="#e0e0e0" stroke-width="0.3">
    <!-- Group of dots at terminals -->
    <!-- Branch Left Terminals -->
    <circle cx="30" cy="140" r="3.5" /> <circle cx="27" cy="137" r="2.5" fill="#f5f5f5" />
    <circle cx="25" cy="100" r="3" /> <circle cx="22" cy="102" r="2.2" />
    <circle cx="70" cy="80" r="3.5" /> <circle cx="73" cy="77" r="2" />
    
    <!-- Branch Right Terminals -->
    <circle cx="170" cy="140" r="3.5" /> <circle cx="173" cy="143" r="2.5" fill="#f5f5f5" />
    <circle cx="175" cy="100" r="3" /> <circle cx="178" cy="98" r="2.2" />
    <circle cx="130" cy="80" r="3.5" /> <circle cx="127" cy="77" r="2" />

    <!-- Center Terminals -->
    <circle cx="90" cy="90" r="4" /> <circle cx="86" cy="88" r="2.5" />
    <circle cx="115" cy="100" r="3.5" /> <circle cx="118" cy="103" r="2" />
    
    <!-- Intermediate dots -->
    <circle cx="58" cy="150" r="2.5" />
    <circle cx="142" cy="150" r="2.5" />
    <circle cx="75" cy="185" r="3" />
    <circle cx="125" cy="185" r="3" />
  </g>
</svg>