<svg xmlns="http://www.w3.org/2000/svg" viewBox="0 0 250 400" width="250" height="400">
  <defs>
    <linearGradient id="stemGrad" x1="0%" y1="0%" x2="100%" y2="100%">
      <stop offset="0%" stop-color="#447539" />
      <stop offset="100%" stop-color="#1f3d18" />
    </linearGradient>
    <linearGradient id="lilyPetal" x1="0%" y1="0%" x2="0%" y2="100%">
      <stop offset="0%" stop-color="#ff7f32" />
      <stop offset="100%" stop-color="#ff5722" />
    </linearGradient>
  </defs>
  
  <!-- Stem -->
  <path d="M 125 150 Q 120 280 125 400" fill="none" stroke="url(#stemGrad)" stroke-width="6" stroke-linecap="round" />
  
  <!-- Lily Leaves -->
  <path d="M 124 230 C 160 210 180 230 170 240 C 150 250 130 240 124 235" fill="#447539" />
  <path d="M 126 280 C 85 270 70 290 80 300 C 95 310 115 295 126 285" fill="#447539" />
  
  <!-- Lily Bloom (6 star-like petals) -->
  <g transform="translate(125, 140)">
    <!-- Back petals -->
    <path d="M 0 0 C -40 -60 -10 -120 0 -130 C 10 -120 40 -60 0 0" fill="url(#lilyPetal)" />
    <path d="M 0 0 C -70 -10 -120 -40 -130 -30 C -120 -20 -70 10 0 0" fill="url(#lilyPetal)" transform="rotate(60)" />
    <path d="M 0 0 C -70 -10 -120 -40 -130 -30 C -120 -20 -70 10 0 0" fill="url(#lilyPetal)" transform="rotate(120)" />
    <path d="M 0 0 C -70 -10 -120 -40 -130 -30 C -120 -20 -70 10 0 0" fill="url(#lilyPetal)" transform="rotate(180)" />
    <path d="M 0 0 C -70 -10 -120 -40 -130 -30 C -120 -20 -70 10 0 0" fill="url(#lilyPetal)" transform="rotate(240)" />
    <path d="M 0 0 C -70 -10 -120 -40 -130 -30 C -120 -20 -70 10 0 0" fill="url(#lilyPetal)" transform="rotate(300)" />
    
    <!-- Speckles/Spots on Lily petals -->
    <circle cx="10" cy="-60" r="1.5" fill="#5e2300" />
    <circle cx="-10" cy="-70" r="1.5" fill="#5e2300" />
    <circle cx="5" cy="-80" r="1" fill="#5e2300" />
    
    <circle cx="-50" cy="-30" r="1.5" fill="#5e2300" transform="rotate(60)" />
    <circle cx="-60" cy="-10" r="1" fill="#5e2300" transform="rotate(60)" />
    
    <!-- Pistil & Stamens -->
    <path d="M 0 0 Q -10 -40 -20 -70" fill="none" stroke="#a2d149" stroke-width="3" stroke-linecap="round" />
    <circle cx="-20" cy="-70" r="4" fill="#a0522d" />
    
    <path d="M 0 0 Q 10 -45 20 -75" fill="none" stroke="#a2d149" stroke-width="3" stroke-linecap="round" />
    <circle cx="20" cy="-75" r="4" fill="#a0522d" />
    
    <path d="M 0 0 Q 0 -50 0 -85" fill="none" stroke="#82c129" stroke-width="4" stroke-linecap="round" />
    <path d="M -5 -85 L 5 -85 L 0 -80 Z" fill="#4a701b" />
  </g>
</svg>