<svg xmlns="http://www.w3.org/2000/svg" viewBox="0 0 200 400" width="200" height="400">
  <defs>
    <linearGradient id="stemGrad" x1="0%" y1="0%" x2="100%" y2="100%">
      <stop offset="0%" stop-color="#388e3c" />
      <stop offset="100%" stop-color="#1b5e20" />
    </linearGradient>
    <linearGradient id="orchidPetal" x1="0%" y1="0%" x2="100%" y2="100%">
      <stop offset="0%" stop-color="#e040fb" />
      <stop offset="100%" stop-color="#7b1fa2" />
    </linearGradient>
  </defs>
  
  <!-- Stem -->
  <path d="M 100 130 Q 98 270 100 400" fill="none" stroke="url(#stemGrad)" stroke-width="5" stroke-linecap="round" />
  
  <!-- Orchid Flower Center -->
  <g transform="translate(100, 120)">
    <!-- Three Outer Sepals -->
    <path d="M 0 0 C -15 -30 -5 -70 0 -75 C 5 -70 15 -30 0 0" fill="url(#orchidPetal)" />
    <path d="M 0 0 C -15 -30 -5 -70 0 -75 C 5 -70 15 -30 0 0" fill="url(#orchidPetal)" transform="rotate(120)" />
    <path d="M 0 0 C -15 -30 -5 -70 0 -75 C 5 -70 15 -30 0 0" fill="url(#orchidPetal)" transform="rotate(240)" />
    
    <!-- Two Large Inner Petals -->
    <path d="M 0 0 C -40 -20 -60 20 -45 35 C -30 45 -10 15 0 0" fill="#ea80fc" stroke="#7b1fa2" stroke-width="0.5" />
    <path d="M 0 0 C 40 -20 60 20 45 35 C 30 45 10 15 0 0" fill="#ea80fc" stroke="#7b1fa2" stroke-width="0.5" />
    
    <!-- Lip / Labellum (Vibrant Center) -->
    <path d="M 0 -5 C -15 15 -25 45 0 50 C 25 45 15 15 0 -5" fill="#ff1744" />
    <path d="M 0 10 C -8 15 -10 30 0 35 C 10 30 8 15 0 10" fill="#ffea00" />
  </g>
</svg>