<svg xmlns="http://www.w3.org/2000/svg" viewBox="0 0 200 400" width="200" height="400">
  <defs>
    <linearGradient id="stemGrad" x1="0%" y1="0%" x2="100%" y2="100%">
      <stop offset="0%" stop-color="#3c7c34" />
      <stop offset="100%" stop-color="#1b4715" />
    </linearGradient>
    <radialGradient id="peonyGrad" cx="50%" cy="50%" r="50%">
      <stop offset="0%" stop-color="#ff8da1" />
      <stop offset="60%" stop-color="#ff4081" />
      <stop offset="100%" stop-color="#c2185b" />
    </radialGradient>
  </defs>
  
  <!-- Stem -->
  <path d="M 100 135 Q 96 280 100 400" fill="none" stroke="url(#stemGrad)" stroke-width="6" stroke-linecap="round" />
  
  <!-- Peony Bloom (Fluffy layers) -->
  <g transform="translate(100, 125)">
    <!-- Outer Fluffy Leaves (12 ruffles) -->
    
    <path d="M 0 0 C -25 -25 -20 -65 0 -55 C 20 -65 25 -25 0 0" fill="url(#peonyGrad)" opacity="0.85" transform="rotate(0)" />
    
    <path d="M 0 0 C -25 -25 -20 -65 0 -55 C 20 -65 25 -25 0 0" fill="url(#peonyGrad)" opacity="0.85" transform="rotate(30)" />
    
    <path d="M 0 0 C -25 -25 -20 -65 0 -55 C 20 -65 25 -25 0 0" fill="url(#peonyGrad)" opacity="0.85" transform="rotate(60)" />
    
    <path d="M 0 0 C -25 -25 -20 -65 0 -55 C 20 -65 25 -25 0 0" fill="url(#peonyGrad)" opacity="0.85" transform="rotate(90)" />
    
    <path d="M 0 0 C -25 -25 -20 -65 0 -55 C 20 -65 25 -25 0 0" fill="url(#peonyGrad)" opacity="0.85" transform="rotate(120)" />
    
    <path d="M 0 0 C -25 -25 -20 -65 0 -55 C 20 -65 25 -25 0 0" fill="url(#peonyGrad)" opacity="0.85" transform="rotate(150)" />
    
    <path d="M 0 0 C -25 -25 -20 -65 0 -55 C 20 -65 25 -25 0 0" fill="url(#peonyGrad)" opacity="0.85" transform="rotate(180)" />
    
    <path d="M 0 0 C -25 -25 -20 -65 0 -55 C 20 -65 25 -25 0 0" fill="url(#peonyGrad)" opacity="0.85" transform="rotate(210)" />
    
    <path d="M 0 0 C -25 -25 -20 -65 0 -55 C 20 -65 25 -25 0 0" fill="url(#peonyGrad)" opacity="0.85" transform="rotate(240)" />
    
    <path d="M 0 0 C -25 -25 -20 -65 0 -55 C 20 -65 25 -25 0 0" fill="url(#peonyGrad)" opacity="0.85" transform="rotate(270)" />
    
    <path d="M 0 0 C -25 -25 -20 -65 0 -55 C 20 -65 25 -25 0 0" fill="url(#peonyGrad)" opacity="0.85" transform="rotate(300)" />
    
    <path d="M 0 0 C -25 -25 -20 -65 0 -55 C 20 -65 25 -25 0 0" fill="url(#peonyGrad)" opacity="0.85" transform="rotate(330)" />
    
    
    <!-- Mid Fluffy Leaves (10 ruffles, smaller) -->
    
    <path d="M 0 0 C -18 -18 -15 -50 0 -42 C 15 -50 18 -18 0 0" fill="#ff4081" opacity="0.95" transform="rotate(18)" />
    
    <path d="M 0 0 C -18 -18 -15 -50 0 -42 C 15 -50 18 -18 0 0" fill="#ff4081" opacity="0.95" transform="rotate(54)" />
    
    <path d="M 0 0 C -18 -18 -15 -50 0 -42 C 15 -50 18 -18 0 0" fill="#ff4081" opacity="0.95" transform="rotate(90)" />
    
    <path d="M 0 0 C -18 -18 -15 -50 0 -42 C 15 -50 18 -18 0 0" fill="#ff4081" opacity="0.95" transform="rotate(126)" />
    
    <path d="M 0 0 C -18 -18 -15 -50 0 -42 C 15 -50 18 -18 0 0" fill="#ff4081" opacity="0.95" transform="rotate(162)" />
    
    <path d="M 0 0 C -18 -18 -15 -50 0 -42 C 15 -50 18 -18 0 0" fill="#ff4081" opacity="0.95" transform="rotate(198)" />
    
    <path d="M 0 0 C -18 -18 -15 -50 0 -42 C 15 -50 18 -18 0 0" fill="#ff4081" opacity="0.95" transform="rotate(234)" />
    
    <path d="M 0 0 C -18 -18 -15 -50 0 -42 C 15 -50 18 -18 0 0" fill="#ff4081" opacity="0.95" transform="rotate(270)" />
    
    <path d="M 0 0 C -18 -18 -15 -50 0 -42 C 15 -50 18 -18 0 0" fill="#ff4081" opacity="0.95" transform="rotate(306)" />
    
    <path d="M 0 0 C -18 -18 -15 -50 0 -42 C 15 -50 18 -18 0 0" fill="#ff4081" opacity="0.95" transform="rotate(342)" />
    
    
    <!-- Inner tight ruffles -->
    
    <path d="M 0 0 C -12 -12 -10 -35 0 -30 C 10 -35 12 -12 0 0" fill="#ff8da1" transform="rotate(0)" />
    
    <path d="M 0 0 C -12 -12 -10 -35 0 -30 C 10 -35 12 -12 0 0" fill="#ff8da1" transform="rotate(45)" />
    
    <path d="M 0 0 C -12 -12 -10 -35 0 -30 C 10 -35 12 -12 0 0" fill="#ff8da1" transform="rotate(90)" />
    
    <path d="M 0 0 C -12 -12 -10 -35 0 -30 C 10 -35 12 -12 0 0" fill="#ff8da1" transform="rotate(135)" />
    
    <path d="M 0 0 C -12 -12 -10 -35 0 -30 C 10 -35 12 -12 0 0" fill="#ff8da1" transform="rotate(180)" />
    
    <path d="M 0 0 C -12 -12 -10 -35 0 -30 C 10 -35 12 -12 0 0" fill="#ff8da1" transform="rotate(225)" />
    
    <path d="M 0 0 C -12 -12 -10 -35 0 -30 C 10 -35 12 -12 0 0" fill="#ff8da1" transform="rotate(270)" />
    
    <path d="M 0 0 C -12 -12 -10 -35 0 -30 C 10 -35 12 -12 0 0" fill="#ff8da1" transform="rotate(315)" />
    
    
    <!-- Golden Core points -->
    <circle cx="0" cy="0" r="8" fill="#ffd700" opacity="0.9" />
    <circle cx="-3" cy="-3" r="2" fill="#ff8f00" />
    <circle cx="3" cy="2" r="1.5" fill="#ff8f00" />
  </g>
</svg>