<svg xmlns="http://www.w3.org/2000/svg" viewBox="0 0 200 400" width="200" height="400">
  <defs>
    <linearGradient id="stemGrad" x1="0%" y1="0%" x2="100%" y2="100%">
      <stop offset="0%" stop-color="#4d823e" />
      <stop offset="100%" stop-color="#244d18" />
    </linearGradient>
    <linearGradient id="tulipGrad1" x1="0%" y1="0%" x2="0%" y2="100%">
      <stop offset="0%" stop-color="#8e44ad" />
      <stop offset="100%" stop-color="#5b2c6f" />
    </linearGradient>
    <linearGradient id="tulipGrad2" x1="0%" y1="0%" x2="0%" y2="100%">
      <stop offset="0%" stop-color="#5b2c6f" />
      <stop offset="100%" stop-color="#c39bd3" />
    </linearGradient>
  </defs>
  
  <!-- Stem -->
  <path d="M 100 120 Q 102 260 100 400" fill="none" stroke="url(#stemGrad)" stroke-width="7" stroke-linecap="round" />
  
  <!-- Large Tulip Leaf -->
  <path d="M 100 320 C 130 260 140 180 125 150 C 115 180 105 240 100 320" fill="#4d823e" stroke="#244d18" stroke-width="1.5" />
  
  <!-- Tulip Bloom (Layered Bell shape) -->
  <g id="bloom">
    <!-- Back Petals -->
    <path d="M 70 120 C 50 80 65 30 100 40 C 135 30 150 80 130 120 Z" fill="url(#tulipGrad2)" />
    
    <!-- Left Petal -->
    <path d="M 68 120 C 45 90 60 40 85 45 C 95 65 95 100 68 120 Z" fill="url(#tulipGrad1)" />
    
    <!-- Right Petal -->
    <path d="M 132 120 C 155 90 140 40 115 45 C 105 65 105 100 132 120 Z" fill="url(#tulipGrad1)" />
    
    <!-- Center/Front Petal -->
    <path d="M 80 125 C 70 85 85 50 100 50 C 115 50 130 85 120 125 C 105 130 95 130 80 125 Z" fill="url(#tulipGrad2)" stroke="rgba(0,0,0,0.05)" />
  </g>
</svg>