<svg xmlns="http://www.w3.org/2000/svg" viewBox="0 0 250 450" width="250" height="450">
  <defs>
    <linearGradient id="stemGrad" x1="0%" y1="0%" x2="100%" y2="100%">
      <stop offset="0%" stop-color="#43773a" />
      <stop offset="100%" stop-color="#194012" />
    </linearGradient>
    <linearGradient id="sunPetal" x1="0%" y1="0%" x2="0%" y2="100%">
      <stop offset="0%" stop-color="#ffeb3b" />
      <stop offset="100%" stop-color="#f57f17" />
    </linearGradient>
    <radialGradient id="sunCenter" cx="50%" cy="50%" r="50%">
      <stop offset="0%" stop-color="#2e1a08" />
      <stop offset="70%" stop-color="#3e2723" />
      <stop offset="100%" stop-color="#1b0c02" />
    </radialGradient>
  </defs>
  
  <!-- Stem -->
  <path d="M 125 150 Q 120 300 125 450" fill="none" stroke="url(#stemGrad)" stroke-width="9" stroke-linecap="round" />
  
  <!-- Leaves -->
  <path d="M 123 250 C 170 230 190 270 160 290 C 140 300 130 280 123 255" fill="#43773a" stroke="#194012" stroke-width="1.5" />
  <path d="M 127 310 C 80 290 60 330 90 350 C 110 360 120 340 127 315" fill="#43773a" stroke="#194012" stroke-width="1.5" />
  
  <!-- Sunflower Bloom -->
  <g transform="translate(125, 140)">
    <!-- Outer Petals Layer 1 (24 Petals) -->
    
    <path d="M 0 0 C -15 -40 -12 -90 0 -105 C 12 -90 15 -40 0 0" fill="url(#sunPetal)" transform="rotate(0)" />
    
    <path d="M 0 0 C -15 -40 -12 -90 0 -105 C 12 -90 15 -40 0 0" fill="url(#sunPetal)" transform="rotate(15)" />
    
    <path d="M 0 0 C -15 -40 -12 -90 0 -105 C 12 -90 15 -40 0 0" fill="url(#sunPetal)" transform="rotate(30)" />
    
    <path d="M 0 0 C -15 -40 -12 -90 0 -105 C 12 -90 15 -40 0 0" fill="url(#sunPetal)" transform="rotate(45)" />
    
    <path d="M 0 0 C -15 -40 -12 -90 0 -105 C 12 -90 15 -40 0 0" fill="url(#sunPetal)" transform="rotate(60)" />
    
    <path d="M 0 0 C -15 -40 -12 -90 0 -105 C 12 -90 15 -40 0 0" fill="url(#sunPetal)" transform="rotate(75)" />
    
    <path d="M 0 0 C -15 -40 -12 -90 0 -105 C 12 -90 15 -40 0 0" fill="url(#sunPetal)" transform="rotate(90)" />
    
    <path d="M 0 0 C -15 -40 -12 -90 0 -105 C 12 -90 15 -40 0 0" fill="url(#sunPetal)" transform="rotate(105)" />
    
    <path d="M 0 0 C -15 -40 -12 -90 0 -105 C 12 -90 15 -40 0 0" fill="url(#sunPetal)" transform="rotate(120)" />
    
    <path d="M 0 0 C -15 -40 -12 -90 0 -105 C 12 -90 15 -40 0 0" fill="url(#sunPetal)" transform="rotate(135)" />
    
    <path d="M 0 0 C -15 -40 -12 -90 0 -105 C 12 -90 15 -40 0 0" fill="url(#sunPetal)" transform="rotate(150)" />
    
    <path d="M 0 0 C -15 -40 -12 -90 0 -105 C 12 -90 15 -40 0 0" fill="url(#sunPetal)" transform="rotate(165)" />
    
    <path d="M 0 0 C -15 -40 -12 -90 0 -105 C 12 -90 15 -40 0 0" fill="url(#sunPetal)" transform="rotate(180)" />
    
    <path d="M 0 0 C -15 -40 -12 -90 0 -105 C 12 -90 15 -40 0 0" fill="url(#sunPetal)" transform="rotate(195)" />
    
    <path d="M 0 0 C -15 -40 -12 -90 0 -105 C 12 -90 15 -40 0 0" fill="url(#sunPetal)" transform="rotate(210)" />
    
    <path d="M 0 0 C -15 -40 -12 -90 0 -105 C 12 -90 15 -40 0 0" fill="url(#sunPetal)" transform="rotate(225)" />
    
    <path d="M 0 0 C -15 -40 -12 -90 0 -105 C 12 -90 15 -40 0 0" fill="url(#sunPetal)" transform="rotate(240)" />
    
    <path d="M 0 0 C -15 -40 -12 -90 0 -105 C 12 -90 15 -40 0 0" fill="url(#sunPetal)" transform="rotate(255)" />
    
    <path d="M 0 0 C -15 -40 -12 -90 0 -105 C 12 -90 15 -40 0 0" fill="url(#sunPetal)" transform="rotate(270)" />
    
    <path d="M 0 0 C -15 -40 -12 -90 0 -105 C 12 -90 15 -40 0 0" fill="url(#sunPetal)" transform="rotate(285)" />
    
    <path d="M 0 0 C -15 -40 -12 -90 0 -105 C 12 -90 15 -40 0 0" fill="url(#sunPetal)" transform="rotate(300)" />
    
    <path d="M 0 0 C -15 -40 -12 -90 0 -105 C 12 -90 15 -40 0 0" fill="url(#sunPetal)" transform="rotate(315)" />
    
    <path d="M 0 0 C -15 -40 -12 -90 0 -105 C 12 -90 15 -40 0 0" fill="url(#sunPetal)" transform="rotate(330)" />
    
    <path d="M 0 0 C -15 -40 -12 -90 0 -105 C 12 -90 15 -40 0 0" fill="url(#sunPetal)" transform="rotate(345)" />
    
    
    <!-- Inner Petals Layer 2 (smaller & shifted) -->
    
    <path d="M 0 0 C -10 -30 -8 -75 0 -85 C 8 -75 10 -30 0 0" fill="#f57f17" opacity="0.9" transform="rotate(7.5)" />
    
    <path d="M 0 0 C -10 -30 -8 -75 0 -85 C 8 -75 10 -30 0 0" fill="#f57f17" opacity="0.9" transform="rotate(22.5)" />
    
    <path d="M 0 0 C -10 -30 -8 -75 0 -85 C 8 -75 10 -30 0 0" fill="#f57f17" opacity="0.9" transform="rotate(37.5)" />
    
    <path d="M 0 0 C -10 -30 -8 -75 0 -85 C 8 -75 10 -30 0 0" fill="#f57f17" opacity="0.9" transform="rotate(52.5)" />
    
    <path d="M 0 0 C -10 -30 -8 -75 0 -85 C 8 -75 10 -30 0 0" fill="#f57f17" opacity="0.9" transform="rotate(67.5)" />
    
    <path d="M 0 0 C -10 -30 -8 -75 0 -85 C 8 -75 10 -30 0 0" fill="#f57f17" opacity="0.9" transform="rotate(82.5)" />
    
    <path d="M 0 0 C -10 -30 -8 -75 0 -85 C 8 -75 10 -30 0 0" fill="#f57f17" opacity="0.9" transform="rotate(97.5)" />
    
    <path d="M 0 0 C -10 -30 -8 -75 0 -85 C 8 -75 10 -30 0 0" fill="#f57f17" opacity="0.9" transform="rotate(112.5)" />
    
    <path d="M 0 0 C -10 -30 -8 -75 0 -85 C 8 -75 10 -30 0 0" fill="#f57f17" opacity="0.9" transform="rotate(127.5)" />
    
    <path d="M 0 0 C -10 -30 -8 -75 0 -85 C 8 -75 10 -30 0 0" fill="#f57f17" opacity="0.9" transform="rotate(142.5)" />
    
    <path d="M 0 0 C -10 -30 -8 -75 0 -85 C 8 -75 10 -30 0 0" fill="#f57f17" opacity="0.9" transform="rotate(157.5)" />
    
    <path d="M 0 0 C -10 -30 -8 -75 0 -85 C 8 -75 10 -30 0 0" fill="#f57f17" opacity="0.9" transform="rotate(172.5)" />
    
    <path d="M 0 0 C -10 -30 -8 -75 0 -85 C 8 -75 10 -30 0 0" fill="#f57f17" opacity="0.9" transform="rotate(187.5)" />
    
    <path d="M 0 0 C -10 -30 -8 -75 0 -85 C 8 -75 10 -30 0 0" fill="#f57f17" opacity="0.9" transform="rotate(202.5)" />
    
    <path d="M 0 0 C -10 -30 -8 -75 0 -85 C 8 -75 10 -30 0 0" fill="#f57f17" opacity="0.9" transform="rotate(217.5)" />
    
    <path d="M 0 0 C -10 -30 -8 -75 0 -85 C 8 -75 10 -30 0 0" fill="#f57f17" opacity="0.9" transform="rotate(232.5)" />
    
    <path d="M 0 0 C -10 -30 -8 -75 0 -85 C 8 -75 10 -30 0 0" fill="#f57f17" opacity="0.9" transform="rotate(247.5)" />
    
    <path d="M 0 0 C -10 -30 -8 -75 0 -85 C 8 -75 10 -30 0 0" fill="#f57f17" opacity="0.9" transform="rotate(262.5)" />
    
    <path d="M 0 0 C -10 -30 -8 -75 0 -85 C 8 -75 10 -30 0 0" fill="#f57f17" opacity="0.9" transform="rotate(277.5)" />
    
    <path d="M 0 0 C -10 -30 -8 -75 0 -85 C 8 -75 10 -30 0 0" fill="#f57f17" opacity="0.9" transform="rotate(292.5)" />
    
    <path d="M 0 0 C -10 -30 -8 -75 0 -85 C 8 -75 10 -30 0 0" fill="#f57f17" opacity="0.9" transform="rotate(307.5)" />
    
    <path d="M 0 0 C -10 -30 -8 -75 0 -85 C 8 -75 10 -30 0 0" fill="#f57f17" opacity="0.9" transform="rotate(322.5)" />
    
    <path d="M 0 0 C -10 -30 -8 -75 0 -85 C 8 -75 10 -30 0 0" fill="#f57f17" opacity="0.9" transform="rotate(337.5)" />
    
    <path d="M 0 0 C -10 -30 -8 -75 0 -85 C 8 -75 10 -30 0 0" fill="#f57f17" opacity="0.9" transform="rotate(352.5)" />
    
    
    <!-- Flower Center Disc -->
    <circle cx="0" cy="0" r="45" fill="url(#sunCenter)" stroke="#5d4037" stroke-width="3" />
    
    <!-- Seeds Texture (Faux) -->
    <circle cx="0" cy="0" r="35" fill="none" stroke="#f57f17" stroke-width="1" stroke-dasharray="2, 5" opacity="0.4" />
    <circle cx="0" cy="0" r="25" fill="none" stroke="#ffeb3b" stroke-width="1" stroke-dasharray="3, 4" opacity="0.3" />
    <circle cx="0" cy="0" r="15" fill="none" stroke="#ffeb3b" stroke-width="1" stroke-dasharray="2, 3" opacity="0.3" />
  </g>
</svg>