<svg xmlns="http://www.w3.org/2000/svg" viewBox="0 0 200 150" width="200" height="150">
  <defs>
    <linearGradient id="ribbonGrad" x1="0%" y1="0%" x2="100%" y2="100%">
      <stop offset="0%" stop-color="#ffd700" />
      <stop offset="100%" stop-color="#c5a019" />
    </linearGradient>
    <filter id="shadow" x="-10%" y="-10%" width="120%" height="120%">
      <feDropShadow dx="0" dy="4" stdDeviation="5" flood-color="#4d3d04" flood-opacity="0.3"/>
    </filter>
  </defs>
  
  <g filter="url(#shadow)">
    <path d="M 100 60 Q 60 90 40 140 L 55 145 Q 75 100 100 80 Z" fill="url(#ribbonGrad)" stroke="rgba(0,0,0,0.1)" stroke-width="0.5" />
    <path d="M 100 60 Q 140 90 160 140 L 145 145 Q 125 100 100 80 Z" fill="url(#ribbonGrad)" stroke="rgba(0,0,0,0.1)" stroke-width="0.5" />
    <path d="M 100 60 C 70 30 30 40 45 70 C 55 85 85 75 100 60 Z" fill="url(#ribbonGrad)" stroke="rgba(0,0,0,0.15)" stroke-width="0.5" />
    <path d="M 100 60 C 130 30 170 40 155 70 C 145 85 115 75 100 60 Z" fill="url(#ribbonGrad)" stroke="rgba(0,0,0,0.15)" stroke-width="0.5" />
    <rect x="88" y="50" width="24" height="20" rx="6" fill="#c5a019" stroke="#ffd700" stroke-width="1.5" />
  </g>
</svg>