<svg xmlns="http://www.w3.org/2000/svg" viewBox="0 0 150 400" width="150" height="400">
  <defs>
    <linearGradient id="eucStem" x1="0%" y1="0%" x2="0%" y2="100%">
      <stop offset="0%" stop-color="#708d81" />
      <stop offset="100%" stop-color="#4f6d61" />
    </linearGradient>
    <radialGradient id="eucLeaf" cx="50%" cy="50%" r="50%">
      <stop offset="0%" stop-color="#94b0a5" />
      <stop offset="80%" stop-color="#708d81" />
      <stop offset="100%" stop-color="#5c786c" />
    </radialGradient>
  </defs>
  
  <!-- Stem -->
  <path d="M 75 50 L 75 400" fill="none" stroke="url(#eucStem)" stroke-width="5" stroke-linecap="round" />
  
  <!-- Pairs of Rounded leaves -->
  <g>
    
      <!-- Pair at y = 80 -->
      <g transform="translate(75, 80) rotate(10)">
        <!-- Left Leaf -->
        <ellipse cx="-28" cy="0" rx="35" ry="25" fill="url(#eucLeaf)" stroke="#5c786c" stroke-width="1" />
        <!-- Right Leaf -->
        <ellipse cx="28" cy="0" rx="35" ry="25" fill="url(#eucLeaf)" stroke="#5c786c" stroke-width="1" />
        <!-- Central connection node -->
        <circle cx="0" cy="0" r="4.5" fill="#4f6d61" />
      </g>
      
      <!-- Pair at y = 118 -->
      <g transform="translate(75, 118) rotate(-10)">
        <!-- Left Leaf -->
        <ellipse cx="-28" cy="0" rx="33.5" ry="24" fill="url(#eucLeaf)" stroke="#5c786c" stroke-width="1" />
        <!-- Right Leaf -->
        <ellipse cx="28" cy="0" rx="33.5" ry="24" fill="url(#eucLeaf)" stroke="#5c786c" stroke-width="1" />
        <!-- Central connection node -->
        <circle cx="0" cy="0" r="4.5" fill="#4f6d61" />
      </g>
      
      <!-- Pair at y = 156 -->
      <g transform="translate(75, 156) rotate(10)">
        <!-- Left Leaf -->
        <ellipse cx="-28" cy="0" rx="32" ry="23" fill="url(#eucLeaf)" stroke="#5c786c" stroke-width="1" />
        <!-- Right Leaf -->
        <ellipse cx="28" cy="0" rx="32" ry="23" fill="url(#eucLeaf)" stroke="#5c786c" stroke-width="1" />
        <!-- Central connection node -->
        <circle cx="0" cy="0" r="4.5" fill="#4f6d61" />
      </g>
      
      <!-- Pair at y = 194 -->
      <g transform="translate(75, 194) rotate(-10)">
        <!-- Left Leaf -->
        <ellipse cx="-28" cy="0" rx="30.5" ry="22" fill="url(#eucLeaf)" stroke="#5c786c" stroke-width="1" />
        <!-- Right Leaf -->
        <ellipse cx="28" cy="0" rx="30.5" ry="22" fill="url(#eucLeaf)" stroke="#5c786c" stroke-width="1" />
        <!-- Central connection node -->
        <circle cx="0" cy="0" r="4.5" fill="#4f6d61" />
      </g>
      
      <!-- Pair at y = 232 -->
      <g transform="translate(75, 232) rotate(10)">
        <!-- Left Leaf -->
        <ellipse cx="-28" cy="0" rx="29" ry="21" fill="url(#eucLeaf)" stroke="#5c786c" stroke-width="1" />
        <!-- Right Leaf -->
        <ellipse cx="28" cy="0" rx="29" ry="21" fill="url(#eucLeaf)" stroke="#5c786c" stroke-width="1" />
        <!-- Central connection node -->
        <circle cx="0" cy="0" r="4.5" fill="#4f6d61" />
      </g>
      
      <!-- Pair at y = 270 -->
      <g transform="translate(75, 270) rotate(-10)">
        <!-- Left Leaf -->
        <ellipse cx="-28" cy="0" rx="27.5" ry="20" fill="url(#eucLeaf)" stroke="#5c786c" stroke-width="1" />
        <!-- Right Leaf -->
        <ellipse cx="28" cy="0" rx="27.5" ry="20" fill="url(#eucLeaf)" stroke="#5c786c" stroke-width="1" />
        <!-- Central connection node -->
        <circle cx="0" cy="0" r="4.5" fill="#4f6d61" />
      </g>
      
      <!-- Pair at y = 308 -->
      <g transform="translate(75, 308) rotate(10)">
        <!-- Left Leaf -->
        <ellipse cx="-28" cy="0" rx="26" ry="19" fill="url(#eucLeaf)" stroke="#5c786c" stroke-width="1" />
        <!-- Right Leaf -->
        <ellipse cx="28" cy="0" rx="26" ry="19" fill="url(#eucLeaf)" stroke="#5c786c" stroke-width="1" />
        <!-- Central connection node -->
        <circle cx="0" cy="0" r="4.5" fill="#4f6d61" />
      </g>
      
      <!-- Pair at y = 346 -->
      <g transform="translate(75, 346) rotate(-10)">
        <!-- Left Leaf -->
        <ellipse cx="-28" cy="0" rx="24.5" ry="18" fill="url(#eucLeaf)" stroke="#5c786c" stroke-width="1" />
        <!-- Right Leaf -->
        <ellipse cx="28" cy="0" rx="24.5" ry="18" fill="url(#eucLeaf)" stroke="#5c786c" stroke-width="1" />
        <!-- Central connection node -->
        <circle cx="0" cy="0" r="4.5" fill="#4f6d61" />
      </g>
      
    
    <!-- Top terminal leaf -->
    <ellipse cx="75" cy="50" rx="15" ry="18" fill="url(#eucLeaf)" stroke="#5c786c" stroke-width="1" />
  </g>
</svg>