<svg xmlns="http://www.w3.org/2000/svg" viewBox="0 0 150 400" width="150" height="400">
  <defs>
    <linearGradient id="fernColor" x1="0%" y1="0%" x2="0%" y2="100%">
      <stop offset="0%" stop-color="#2e7d32" />
      <stop offset="100%" stop-color="#1b5e20" />
    </linearGradient>
  </defs>
  
  <!-- Stem / Rachis -->
  <path d="M 75 50 Q 72 230 75 400" fill="none" stroke="#1b5e20" stroke-width="4.5" stroke-linecap="round" />
  
  <!-- Symmetrical Pinnae (fern leaflets) -->
  <g fill="url(#fernColor)" stroke="#0d3c12" stroke-width="0.5">
    
      <!-- Left Leaflet -->
      <path d="M 74 60 C 46 46 39 65 74 70" />
      <!-- Right Leaflet -->
      <path d="M 76 60 C 104 46 111 65 76 70" />
      
      <!-- Left Leaflet -->
      <path d="M 74 78 C 44.8 63.4 37.5 83 74 88" />
      <!-- Right Leaflet -->
      <path d="M 76 78 C 105.2 63.4 112.5 83 76 88" />
      
      <!-- Left Leaflet -->
      <path d="M 74 96 C 43.599999999999994 80.8 36 101 74 106" />
      <!-- Right Leaflet -->
      <path d="M 76 96 C 106.4 80.8 114 101 76 106" />
      
      <!-- Left Leaflet -->
      <path d="M 74 114 C 42.4 98.2 34.5 119 74 124" />
      <!-- Right Leaflet -->
      <path d="M 76 114 C 107.6 98.2 115.5 119 76 124" />
      
      <!-- Left Leaflet -->
      <path d="M 74 132 C 41.199999999999996 115.6 33 137 74 142" />
      <!-- Right Leaflet -->
      <path d="M 76 132 C 108.80000000000001 115.6 117 137 76 142" />
      
      <!-- Left Leaflet -->
      <path d="M 74 150 C 40 133 31.5 155 74 160" />
      <!-- Right Leaflet -->
      <path d="M 76 150 C 110 133 118.5 155 76 160" />
      
      <!-- Left Leaflet -->
      <path d="M 74 168 C 38.8 150.4 30 173 74 178" />
      <!-- Right Leaflet -->
      <path d="M 76 168 C 111.2 150.4 120 173 76 178" />
      
      <!-- Left Leaflet -->
      <path d="M 74 186 C 37.6 167.8 28.5 191 74 196" />
      <!-- Right Leaflet -->
      <path d="M 76 186 C 112.4 167.8 121.5 191 76 196" />
      
      <!-- Left Leaflet -->
      <path d="M 74 204 C 36.4 185.2 27 209 74 214" />
      <!-- Right Leaflet -->
      <path d="M 76 204 C 113.6 185.2 123 209 76 214" />
      
      <!-- Left Leaflet -->
      <path d="M 74 222 C 35.199999999999996 202.6 25.5 227 74 232" />
      <!-- Right Leaflet -->
      <path d="M 76 222 C 114.80000000000001 202.6 124.5 227 76 232" />
      
      <!-- Left Leaflet -->
      <path d="M 74 240 C 34 220 24 245 74 250" />
      <!-- Right Leaflet -->
      <path d="M 76 240 C 116 220 126 245 76 250" />
      
      <!-- Left Leaflet -->
      <path d="M 74 258 C 35.199999999999996 238.6 25.5 263 74 268" />
      <!-- Right Leaflet -->
      <path d="M 76 258 C 114.80000000000001 238.6 124.5 263 76 268" />
      
      <!-- Left Leaflet -->
      <path d="M 74 276 C 36.4 257.2 27 281 74 286" />
      <!-- Right Leaflet -->
      <path d="M 76 276 C 113.6 257.2 123 281 76 286" />
      
      <!-- Left Leaflet -->
      <path d="M 74 294 C 37.6 275.8 28.5 299 74 304" />
      <!-- Right Leaflet -->
      <path d="M 76 294 C 112.4 275.8 121.5 299 76 304" />
      
      <!-- Left Leaflet -->
      <path d="M 74 312 C 38.8 294.4 30 317 74 322" />
      <!-- Right Leaflet -->
      <path d="M 76 312 C 111.2 294.4 120 317 76 322" />
      
      <!-- Left Leaflet -->
      <path d="M 74 330 C 40 313 31.5 335 74 340" />
      <!-- Right Leaflet -->
      <path d="M 76 330 C 110 313 118.5 335 76 340" />
      
      <!-- Left Leaflet -->
      <path d="M 74 348 C 41.199999999999996 331.6 33 353 74 358" />
      <!-- Right Leaflet -->
      <path d="M 76 348 C 108.80000000000001 331.6 117 353 76 358" />
      
      <!-- Left Leaflet -->
      <path d="M 74 366 C 42.4 350.2 34.5 371 74 376" />
      <!-- Right Leaflet -->
      <path d="M 76 366 C 107.6 350.2 115.5 371 76 376" />
      
    
    <!-- Tip leaflet -->
    <path d="M 75 50 C 70 30 75 10 75 5 C 75 10 80 30 75 50 Z" />
  </g>
</svg>