<svg xmlns="http://www.w3.org/2000/svg" viewBox="0 0 150 400" width="150" height="400">
  <defs>
    <linearGradient id="ivyColor" x1="0%" y1="0%" x2="0%" y2="100%">
      <stop offset="0%" stop-color="#4caf50" />
      <stop offset="100%" stop-color="#1b5e20" />
    </linearGradient>
  </defs>
  
  <!-- Stem -->
  <path d="M 75 40 Q 78 220 75 400" fill="none" stroke="#1b5e20" stroke-width="4" stroke-linecap="round" />
  
  <!-- Ivy leaves alternating -->
  <g>
    
      <g transform="translate(75, 80) rotate(-45) scale(1)">
        <path d="M 0 0 L -18 5" stroke="#1b5e20" stroke-width="2" />
        <g transform="translate(-18, 5) rotate(90)">
          <path d="M 0 -25 L -18 -8 L -12 18 L 12 18 L 18 -8 Z" fill="url(#ivyColor)" stroke="#0d3c12" stroke-width="1.5" />
          <path d="M 0 -25 Q -25 -5 0 25 Q 25 -5 0 -25" fill="url(#ivyColor)" />
          <!-- Veins -->
          <path d="M 0 20 L 0 -22" fill="none" stroke="#a5d6a7" stroke-width="1.5" opacity="0.6" />
          <path d="M 0 0 L -12 -12" fill="none" stroke="#a5d6a7" stroke-width="1" opacity="0.5" />
          <path d="M 0 0 L 12 -12" fill="none" stroke="#a5d6a7" stroke-width="1" opacity="0.5" />
          <path d="M 0 10 L -10 5" fill="none" stroke="#a5d6a7" stroke-width="1" opacity="0.5" />
          <path d="M 0 10 L 10 5" fill="none" stroke="#a5d6a7" stroke-width="1" opacity="0.5" />
        </g>
      </g>
      
      <g transform="translate(75, 132) rotate(45) scale(0.92)">
        <path d="M 0 0 L 18 5" stroke="#1b5e20" stroke-width="2" />
        <g transform="translate(18, 5) rotate(-90)">
          <path d="M 0 -25 L -18 -8 L -12 18 L 12 18 L 18 -8 Z" fill="url(#ivyColor)" stroke="#0d3c12" stroke-width="1.5" />
          <path d="M 0 -25 Q -25 -5 0 25 Q 25 -5 0 -25" fill="url(#ivyColor)" />
          <!-- Veins -->
          <path d="M 0 20 L 0 -22" fill="none" stroke="#a5d6a7" stroke-width="1.5" opacity="0.6" />
          <path d="M 0 0 L -12 -12" fill="none" stroke="#a5d6a7" stroke-width="1" opacity="0.5" />
          <path d="M 0 0 L 12 -12" fill="none" stroke="#a5d6a7" stroke-width="1" opacity="0.5" />
          <path d="M 0 10 L -10 5" fill="none" stroke="#a5d6a7" stroke-width="1" opacity="0.5" />
          <path d="M 0 10 L 10 5" fill="none" stroke="#a5d6a7" stroke-width="1" opacity="0.5" />
        </g>
      </g>
      
      <g transform="translate(75, 184) rotate(-45) scale(0.84)">
        <path d="M 0 0 L -18 5" stroke="#1b5e20" stroke-width="2" />
        <g transform="translate(-18, 5) rotate(90)">
          <path d="M 0 -25 L -18 -8 L -12 18 L 12 18 L 18 -8 Z" fill="url(#ivyColor)" stroke="#0d3c12" stroke-width="1.5" />
          <path d="M 0 -25 Q -25 -5 0 25 Q 25 -5 0 -25" fill="url(#ivyColor)" />
          <!-- Veins -->
          <path d="M 0 20 L 0 -22" fill="none" stroke="#a5d6a7" stroke-width="1.5" opacity="0.6" />
          <path d="M 0 0 L -12 -12" fill="none" stroke="#a5d6a7" stroke-width="1" opacity="0.5" />
          <path d="M 0 0 L 12 -12" fill="none" stroke="#a5d6a7" stroke-width="1" opacity="0.5" />
          <path d="M 0 10 L -10 5" fill="none" stroke="#a5d6a7" stroke-width="1" opacity="0.5" />
          <path d="M 0 10 L 10 5" fill="none" stroke="#a5d6a7" stroke-width="1" opacity="0.5" />
        </g>
      </g>
      
      <g transform="translate(75, 236) rotate(45) scale(0.76)">
        <path d="M 0 0 L 18 5" stroke="#1b5e20" stroke-width="2" />
        <g transform="translate(18, 5) rotate(-90)">
          <path d="M 0 -25 L -18 -8 L -12 18 L 12 18 L 18 -8 Z" fill="url(#ivyColor)" stroke="#0d3c12" stroke-width="1.5" />
          <path d="M 0 -25 Q -25 -5 0 25 Q 25 -5 0 -25" fill="url(#ivyColor)" />
          <!-- Veins -->
          <path d="M 0 20 L 0 -22" fill="none" stroke="#a5d6a7" stroke-width="1.5" opacity="0.6" />
          <path d="M 0 0 L -12 -12" fill="none" stroke="#a5d6a7" stroke-width="1" opacity="0.5" />
          <path d="M 0 0 L 12 -12" fill="none" stroke="#a5d6a7" stroke-width="1" opacity="0.5" />
          <path d="M 0 10 L -10 5" fill="none" stroke="#a5d6a7" stroke-width="1" opacity="0.5" />
          <path d="M 0 10 L 10 5" fill="none" stroke="#a5d6a7" stroke-width="1" opacity="0.5" />
        </g>
      </g>
      
      <g transform="translate(75, 288) rotate(-45) scale(0.6799999999999999)">
        <path d="M 0 0 L -18 5" stroke="#1b5e20" stroke-width="2" />
        <g transform="translate(-18, 5) rotate(90)">
          <path d="M 0 -25 L -18 -8 L -12 18 L 12 18 L 18 -8 Z" fill="url(#ivyColor)" stroke="#0d3c12" stroke-width="1.5" />
          <path d="M 0 -25 Q -25 -5 0 25 Q 25 -5 0 -25" fill="url(#ivyColor)" />
          <!-- Veins -->
          <path d="M 0 20 L 0 -22" fill="none" stroke="#a5d6a7" stroke-width="1.5" opacity="0.6" />
          <path d="M 0 0 L -12 -12" fill="none" stroke="#a5d6a7" stroke-width="1" opacity="0.5" />
          <path d="M 0 0 L 12 -12" fill="none" stroke="#a5d6a7" stroke-width="1" opacity="0.5" />
          <path d="M 0 10 L -10 5" fill="none" stroke="#a5d6a7" stroke-width="1" opacity="0.5" />
          <path d="M 0 10 L 10 5" fill="none" stroke="#a5d6a7" stroke-width="1" opacity="0.5" />
        </g>
      </g>
      
      <g transform="translate(75, 340) rotate(45) scale(0.6)">
        <path d="M 0 0 L 18 5" stroke="#1b5e20" stroke-width="2" />
        <g transform="translate(18, 5) rotate(-90)">
          <path d="M 0 -25 L -18 -8 L -12 18 L 12 18 L 18 -8 Z" fill="url(#ivyColor)" stroke="#0d3c12" stroke-width="1.5" />
          <path d="M 0 -25 Q -25 -5 0 25 Q 25 -5 0 -25" fill="url(#ivyColor)" />
          <!-- Veins -->
          <path d="M 0 20 L 0 -22" fill="none" stroke="#a5d6a7" stroke-width="1.5" opacity="0.6" />
          <path d="M 0 0 L -12 -12" fill="none" stroke="#a5d6a7" stroke-width="1" opacity="0.5" />
          <path d="M 0 0 L 12 -12" fill="none" stroke="#a5d6a7" stroke-width="1" opacity="0.5" />
          <path d="M 0 10 L -10 5" fill="none" stroke="#a5d6a7" stroke-width="1" opacity="0.5" />
          <path d="M 0 10 L 10 5" fill="none" stroke="#a5d6a7" stroke-width="1" opacity="0.5" />
        </g>
      </g>
      
  </g>
</svg>