<svg xmlns="http://www.w3.org/2000/svg" viewBox="0 0 200 400" width="200" height="400">
  <defs>
    <linearGradient id="palmGrad" x1="0%" y1="0%" x2="100%" y2="0%">
      <stop offset="0%" stop-color="#3c763d" />
      <stop offset="50%" stop-color="#2b542c" />
      <stop offset="100%" stop-color="#1b3d1c" />
    </linearGradient>
  </defs>
  
  <!-- Stem -->
  <path d="M 100 400 L 100 150" fill="none" stroke="#1b3d1c" stroke-width="6" stroke-linecap="round" />
  
  <!-- Palm Fronds -->
  <g fill="url(#palmGrad)" stroke="#132c14" stroke-width="0.5">
    
      <g transform="translate(100, 160) rotate(-70)">
        <path d="M 0 0 C -4 -40 -6 -180 0 -220 C 6 -180 4 -40 0 0" />
      </g>
      
      <g transform="translate(100, 160) rotate(-60)">
        <path d="M 0 0 C -4 -40 -6 -180 0 -220 C 6 -180 4 -40 0 0" />
      </g>
      
      <g transform="translate(100, 160) rotate(-50)">
        <path d="M 0 0 C -4 -40 -6 -180 0 -220 C 6 -180 4 -40 0 0" />
      </g>
      
      <g transform="translate(100, 160) rotate(-40)">
        <path d="M 0 0 C -4 -40 -6 -180 0 -220 C 6 -180 4 -40 0 0" />
      </g>
      
      <g transform="translate(100, 160) rotate(-30)">
        <path d="M 0 0 C -4 -40 -6 -180 0 -220 C 6 -180 4 -40 0 0" />
      </g>
      
      <g transform="translate(100, 160) rotate(-20)">
        <path d="M 0 0 C -4 -40 -6 -180 0 -220 C 6 -180 4 -40 0 0" />
      </g>
      
      <g transform="translate(100, 160) rotate(-10)">
        <path d="M 0 0 C -4 -40 -6 -180 0 -220 C 6 -180 4 -40 0 0" />
      </g>
      
      <g transform="translate(100, 160) rotate(0)">
        <path d="M 0 0 C -4 -40 -6 -180 0 -220 C 6 -180 4 -40 0 0" />
      </g>
      
      <g transform="translate(100, 160) rotate(10)">
        <path d="M 0 0 C -4 -40 -6 -180 0 -220 C 6 -180 4 -40 0 0" />
      </g>
      
      <g transform="translate(100, 160) rotate(20)">
        <path d="M 0 0 C -4 -40 -6 -180 0 -220 C 6 -180 4 -40 0 0" />
      </g>
      
      <g transform="translate(100, 160) rotate(30)">
        <path d="M 0 0 C -4 -40 -6 -180 0 -220 C 6 -180 4 -40 0 0" />
      </g>
      
      <g transform="translate(100, 160) rotate(40)">
        <path d="M 0 0 C -4 -40 -6 -180 0 -220 C 6 -180 4 -40 0 0" />
      </g>
      
      <g transform="translate(100, 160) rotate(50)">
        <path d="M 0 0 C -4 -40 -6 -180 0 -220 C 6 -180 4 -40 0 0" />
      </g>
      
      <g transform="translate(100, 160) rotate(60)">
        <path d="M 0 0 C -4 -40 -6 -180 0 -220 C 6 -180 4 -40 0 0" />
      </g>
      
      <g transform="translate(100, 160) rotate(70)">
        <path d="M 0 0 C -4 -40 -6 -180 0 -220 C 6 -180 4 -40 0 0" />
      </g>
      
    
    <!-- Base wrap -->
    <path d="M 85 155 Q 100 145 115 155 C 110 170 90 170 85 155 Z" fill="#1b3d1c" />
  </g>
</svg>